<svg xmlns="http://www.w3.org/2000/svg" xmlns:xlink="http://www.w3.org/1999/xlink" width="18.646" height="18.638" viewBox="0 0 18.646 18.638">
  <defs>
    <clipPath id="clip-path">
      <rect id="Rectangle_1011" data-name="Rectangle 1011" width="18.646" height="18.638" fill="#fff"/>
    </clipPath>
  </defs>
  <g id="contact-phone-two" transform="translate(0 0)">
    <g id="Group_5347" data-name="Group 5347" transform="translate(0 0)" clip-path="url(#clip-path)">
      <path id="Path_2787" data-name="Path 2787" d="M18.63,14.275a1.486,1.486,0,0,0-.729-.985L14.32,11.174a.545.545,0,0,0-.1-.046,1.561,1.561,0,0,0-.7-.144,1.71,1.71,0,0,0-1.18.464l-.961.978-.06-.012a2.336,2.336,0,0,1-.523-.219,8.041,8.041,0,0,1-1.011-.65A11.787,11.787,0,0,1,8.36,10.272,11.5,11.5,0,0,1,7.1,8.869a7.814,7.814,0,0,1-.643-1.014,3.323,3.323,0,0,1-.246-.593l.813-.813A1.714,1.714,0,0,0,7.5,5.575,1.454,1.454,0,0,0,7.35,4.548L5.367.786,5.342.742A1.821,1.821,0,0,0,4.891.253,1.238,1.238,0,0,0,4.127,0a1.363,1.363,0,0,0-.99.424L.69,2.872a1.941,1.941,0,0,0-.445.609,2.376,2.376,0,0,0-.218.7l0,.07c0,.029-.007.144-.018.346A5.064,5.064,0,0,0,.084,5.63,10.058,10.058,0,0,0,.457,7.106a12.242,12.242,0,0,0,.817,1.888A18.125,18.125,0,0,0,2.69,11.227,20.89,20.89,0,0,0,4.9,13.74a19.988,19.988,0,0,0,3.172,2.673,16.861,16.861,0,0,0,2.68,1.468,9.151,9.151,0,0,0,2.06.63,8.917,8.917,0,0,0,1.226.127c.119,0,.217,0,.3-.012l.135-.012a2.355,2.355,0,0,0,.693-.218,1.907,1.907,0,0,0,.588-.422l2.469-2.451a1.42,1.42,0,0,0,.413-1.248M6.4,5.344a.591.591,0,0,1-.163.313l-.91.91a.844.844,0,0,0-.2.337.994.994,0,0,0-.057.319.546.546,0,0,0,.01.1,3.885,3.885,0,0,0,.383,1.037A8.726,8.726,0,0,0,6.2,9.527a12.481,12.481,0,0,0,1.37,1.538,12.786,12.786,0,0,0,1.555,1.388,9.008,9.008,0,0,0,1.161.743,3.379,3.379,0,0,0,.812.319l.231.047a.765.765,0,0,0,.412-.047.855.855,0,0,0,.341-.2l1.035-1.055a.583.583,0,0,1,.4-.15.458.458,0,0,1,.212.031.483.483,0,0,0,.089.042l3.5,2.069c.161.1.2.185.2.215a.29.29,0,0,1-.1.264L14.937,17.2a.853.853,0,0,1-.265.186,1.264,1.264,0,0,1-.336.113l-.111.01a6.184,6.184,0,0,1-1.247-.107,8.2,8.2,0,0,1-1.8-.558,15.7,15.7,0,0,1-2.5-1.371,18.9,18.9,0,0,1-2.994-2.528A19.829,19.829,0,0,1,3.6,10.566,17,17,0,0,1,2.267,8.475a11.187,11.187,0,0,1-.743-1.711,9.067,9.067,0,0,1-.332-1.309,4.117,4.117,0,0,1-.069-.8q.015-.258.019-.349a1.292,1.292,0,0,1,.113-.34.886.886,0,0,1,.206-.282L3.929,1.218c.157-.156.237-.107.29-.068a.719.719,0,0,1,.16.167L6.366,5.085a.342.342,0,0,1,.033.259" transform="translate(0 0)" fill="#fff"/>
    </g>
  </g>
</svg>
