<svg id="facebook-border" xmlns="http://www.w3.org/2000/svg" xmlns:xlink="http://www.w3.org/1999/xlink" width="8.389" height="18" viewBox="0 0 8.389 18">
  <defs>
    <clipPath id="clip-path">
      <rect id="Rectangle_36" data-name="Rectangle 36" width="8.389" height="18" fill="#98b1bc"/>
    </clipPath>
  </defs>
  <g id="Group_86" data-name="Group 86" clip-path="url(#clip-path)">
    <path id="Path_61" data-name="Path 61" d="M5.583,5.9V4.347a3.413,3.413,0,0,1,.032-.541,1.049,1.049,0,0,1,.148-.377.6.6,0,0,1,.371-.257A2.644,2.644,0,0,1,6.817,3.1H8.368V0H5.888A4.036,4.036,0,0,0,2.8,1.021,4.3,4.3,0,0,0,1.858,4.03V5.9H0V9H1.858v9H5.583V9H8.062l.328-3.1Z" transform="translate(-0.001)" fill="#98b1bc"/>
  </g>
</svg>
