<svg xmlns="http://www.w3.org/2000/svg" xmlns:xlink="http://www.w3.org/1999/xlink" width="66" height="70.445" viewBox="0 0 66 70.445">
  <defs>
    <clipPath id="clip-path">
      <rect id="Rectangle_894" data-name="Rectangle 894" width="66" height="70.445" fill="#fff"/>
    </clipPath>
  </defs>
  <g id="front4" transform="translate(0 0)">
    <g id="Group_13" data-name="Group 13" transform="translate(0 0.001)" clip-path="url(#clip-path)">
      <path id="Path_2757" data-name="Path 2757" d="M65.454,17.644C56.766,11.345,45.235,7.876,33,7.876S9.234,11.345.546,17.644A1.314,1.314,0,0,0,0,18.707v9.619A4.771,4.771,0,0,0,4.766,33.1H61.228A4.775,4.775,0,0,0,66,28.325V18.707a1.314,1.314,0,0,0-.546-1.062m-19-5.611c-1.568,5.886-4.772,8.459-6.185,9.338L33.859,15.8a1.3,1.3,0,0,0-1.717,0l-6.415,5.57c-1.413-.884-4.617-3.451-6.179-9.338a60,60,0,0,1,26.9,0M2.63,28.325V19.384a47.9,47.9,0,0,1,14.385-6.7c2.337,8.832,8.132,11.382,8.384,11.491a1.3,1.3,0,0,0,1.372-.224l.534-.459,2.165,4.41-1.022,2.567H4.766A2.144,2.144,0,0,1,2.63,28.325m28.644,2.142.856-2.142a1.33,1.33,0,0,0-.04-1.068L29.351,21.7,33,18.534l3.652,3.17L33.9,27.257a1.33,1.33,0,0,0-.04,1.068l.856,2.142Zm32.09-2.142a2.141,2.141,0,0,1-2.136,2.142H37.545L36.523,27.9l2.171-4.41.528.459a1.333,1.333,0,0,0,.861.327,1.291,1.291,0,0,0,.511-.1c.258-.109,6.047-2.659,8.39-11.491a47.866,47.866,0,0,1,14.38,6.7Z" transform="translate(0 37.35)" fill="#fff"/>
      <path id="Path_2758" data-name="Path 2758" d="M38.933,17.814c-.011-.178-.017-.35-.023-.523C38.394,5.817,32.72,0,22.027,0,11.185,0,5.506,6,5.138,17.814c-1.884.574-3.061,3.072-2.785,6.122.27,3.026,1.855,5.266,3.83,5.478A20.821,20.821,0,0,0,13.6,40.405a14.288,14.288,0,0,0,8.424,2.837,14.284,14.284,0,0,0,8.419-2.825,20.91,20.91,0,0,0,7.437-11c1.97-.212,3.555-2.452,3.83-5.478.27-3.044-.9-5.542-2.779-6.122M22.027,2.63c8.884,0,13.415,4.307,14.173,13.535l-.373.04-.385.029c-.517.034-1.034.052-1.539.052-9.895,0-13.989-6.041-14.15-6.3a1.764,1.764,0,0,0-.235-.27l-.092-.057a1.142,1.142,0,0,0-.207-.132L19.1,9.475a1.343,1.343,0,0,0-.218-.052L18.754,9.4l-.109-.011a1.121,1.121,0,0,0-.2.017,13.616,13.616,0,0,0-1.545.31c-.172.04-.327.092-.488.138-.333.092-.66.19-.988.3-.178.057-.356.126-.534.2-.293.109-.574.224-.856.345-.184.08-.356.155-.523.235-.281.126-.551.258-.81.4-.155.075-.31.155-.465.247-.287.149-.546.31-.815.477-.121.069-.235.138-.356.212-.368.235-.729.477-1.062.718l-.132.092c-.3.212-.574.425-.844.643-.115.075-.207.167-.316.253-.2.155-.379.3-.563.465l-.109.092C9.571,3.951,16.629,2.63,22.027,2.63M39.089,23.7c-.178,2.039-1.143,3.1-1.51,3.1l-.092-.029a1.33,1.33,0,0,0-1.126,0,1.312,1.312,0,0,0-.718.867,18.675,18.675,0,0,1-6.736,10.647,11.327,11.327,0,0,1-13.759-.006A18.669,18.669,0,0,1,8.411,27.639a1.35,1.35,0,0,0-.758-.856,1.313,1.313,0,0,0-.557-.121,1.439,1.439,0,0,0-.62.138c-.362,0-1.327-1.062-1.51-3.1-.19-2.113.614-3.348.976-3.388l.092.029A1.324,1.324,0,0,0,7.74,19.083c0-.2,0-.379.006-.557a2.742,2.742,0,0,1,.224-.258l.092-.1c.063-.075.144-.155.23-.247l.144-.149a3.339,3.339,0,0,1,.247-.247c.057-.063.126-.126.184-.184.092-.092.184-.178.276-.264l.224-.212c.1-.092.207-.19.316-.281.086-.069.161-.144.253-.218.109-.1.241-.2.362-.3.086-.075.172-.144.258-.212.161-.126.322-.253.494-.385a2.151,2.151,0,0,0,.19-.149c.241-.167.482-.35.741-.517.08-.052.161-.1.23-.149.2-.126.385-.247.58-.368.109-.063.212-.121.316-.184l.546-.31c.126-.057.247-.121.368-.184.184-.1.368-.184.557-.281l.39-.172c.2-.092.4-.167.6-.253.132-.052.258-.1.391-.144.23-.086.465-.167.695-.235.115-.034.23-.075.345-.109.356-.1.718-.2,1.091-.27,1.533,1.889,6.426,6.782,15.815,6.782.551,0,1.126-.029,1.706-.063.121-.006.253-.017.379-.029.109-.006.218-.006.339-.017v.27a1.31,1.31,0,0,0,1.7,1.258l.086-.029c.373.046,1.166,1.281.976,3.388" transform="translate(10.97 -0.003)" fill="#fff"/>
      <path id="Path_2759" data-name="Path 2759" d="M7.435,12.52A12.38,12.38,0,0,0,8.847,8.547,16.293,16.293,0,0,1,6.683,7.226c-.1-.075-.2-.155-.3-.23a9.854,9.854,0,0,1-2.613,6.081q1.809-.336,3.664-.557" transform="translate(17.884 33.177)" fill="#fff"/>
      <path id="Path_2760" data-name="Path 2760" d="M11.91,13.062A9.854,9.854,0,0,1,9.286,7c-.1.075-.184.161-.281.23A15.949,15.949,0,0,1,6.834,8.543a12.441,12.441,0,0,0,1.413,3.968c1.235.149,2.458.327,3.664.551" transform="translate(32.411 33.186)" fill="#fff"/>
    </g>
  </g>
</svg>
