<svg xmlns="http://www.w3.org/2000/svg" xmlns:xlink="http://www.w3.org/1999/xlink" width="69" height="57.485" viewBox="0 0 69 57.485">
  <defs>
    <clipPath id="clip-path">
      <rect id="Rectangle_896" data-name="Rectangle 896" width="69" height="57.485" fill="#fff"/>
    </clipPath>
  </defs>
  <g id="front3" transform="translate(0 0)">
    <g id="Group_17" data-name="Group 17" transform="translate(0 0)" clip-path="url(#clip-path)">
      <path id="Path_2767" data-name="Path 2767" d="M59.275,17.186H15.509a5.585,5.585,0,0,0-3.27,1.052V11.672a1.173,1.173,0,0,0-.344-.832L2.006.952A1.174,1.174,0,0,0,.343,2.61l9.544,9.549V44.493a5.626,5.626,0,0,0,5.622,5.617h.236a6.175,6.175,0,0,1,0-2.351h-.236a3.268,3.268,0,0,1-3.27-3.265V22.8a3.268,3.268,0,0,1,3.27-3.265H59.275a3.268,3.268,0,0,1,3.27,3.265V44.493a3.268,3.268,0,0,1-3.27,3.265h-.246a5.67,5.67,0,0,1,0,2.351h.246a5.621,5.621,0,0,0,5.617-5.617V22.8a5.621,5.621,0,0,0-5.617-5.617" transform="translate(0.001 2.502)" fill="#fff"/>
      <path id="Path_2768" data-name="Path 2768" d="M5.378,9.79a5.892,5.892,0,0,1,.113,1.176,5.892,5.892,0,0,1-.113,1.176H24.943a5.912,5.912,0,0,1,0-2.351Z" transform="translate(22.232 40.47)" fill="#fff"/>
      <path id="Path_2769" data-name="Path 2769" d="M15.214,8.841a6.048,6.048,0,1,0,6.048,6.048,6.058,6.058,0,0,0-6.048-6.048m0,9.744a3.7,3.7,0,1,1,3.691-3.7,3.7,3.7,0,0,1-3.691,3.7" transform="translate(37.892 36.547)" fill="#fff"/>
      <path id="Path_2770" data-name="Path 2770" d="M9.093,8.841a6.048,6.048,0,1,0,6.048,6.048A6.058,6.058,0,0,0,9.093,8.841m0,9.744a3.7,3.7,0,1,1,3.7-3.7,3.7,3.7,0,0,1-3.7,3.7" transform="translate(12.588 36.547)" fill="#fff"/>
      <path id="Path_2771" data-name="Path 2771" d="M12.495,4.886a1.187,1.187,0,0,0-.339.827,1.156,1.156,0,0,0,.344.832,1.173,1.173,0,1,0,1.658-1.658,1.21,1.21,0,0,0-1.663,0" transform="translate(50.252 18.826)" fill="#fff"/>
      <path id="Path_2772" data-name="Path 2772" d="M56.792,8.538l-.026-.128a5.987,5.987,0,0,0-5.822-4.574H7.917A6,6,0,0,0,1.926,9.821V23.128a1.171,1.171,0,0,0,.554,1,33.616,33.616,0,0,0,16.731,4.415,33.159,33.159,0,0,0,13.235-2.772A28.332,28.332,0,0,1,59.164,27.9a1.175,1.175,0,0,0,1.34.041,1.161,1.161,0,0,0,.5-1.253ZM31.513,23.606c-13.148,5.683-24.633.246-27.235-1.16V9.821a3.643,3.643,0,0,1,3.64-3.635H50.945a3.676,3.676,0,0,1,3.512,2.685l.015.082L58.086,24.5a30.334,30.334,0,0,0-26.573-.893" transform="translate(7.962 15.852)" fill="#fff"/>
      <path id="Path_2773" data-name="Path 2773" d="M6.6,15.348a13.018,13.018,0,0,1,25.947,0h2.372a15.378,15.378,0,0,0-30.68,0Z" transform="translate(17.52 4.339)" fill="#fff"/>
      <path id="Path_2774" data-name="Path 2774" d="M8.145,6.34A5.473,5.473,0,0,1,18.68,6.335a15.1,15.1,0,0,1,2.387,1.114,4.551,4.551,0,0,0,.026-.519C21.093,3.3,17.443,0,13.412,0S5.727,3.3,5.727,6.931a3.785,3.785,0,0,0,.031.529A15.12,15.12,0,0,1,8.145,6.34" transform="translate(23.675 -0.002)" fill="#fff"/>
    </g>
  </g>
</svg>
