<svg xmlns="http://www.w3.org/2000/svg" xmlns:xlink="http://www.w3.org/1999/xlink" width="55.791" height="68" viewBox="0 0 55.791 68">
  <defs>
    <clipPath id="clip-path">
      <rect id="Rectangle_897" data-name="Rectangle 897" width="55.791" height="68" fill="#fff"/>
    </clipPath>
  </defs>
  <g id="front2" transform="translate(0 0)">
    <g id="Group_19" data-name="Group 19" transform="translate(0 0)" clip-path="url(#clip-path)">
      <path id="Path_2775" data-name="Path 2775" d="M27.891,55.786A27.893,27.893,0,1,1,55.791,27.9a27.923,27.923,0,0,1-27.9,27.891m0-53.43A25.539,25.539,0,1,0,53.435,27.9,25.568,25.568,0,0,0,27.891,2.356" transform="translate(0 0.001)" fill="#fff"/>
      <path id="Path_2776" data-name="Path 2776" d="M21.236,9.835c-.643.458-1.307.9-1.991,1.3l3.324,6.987-6.544-1.96a1.185,1.185,0,0,0-1.425.679l-2.614,6.313L8.044,14.862c-.828.093-1.677.139-2.536.154L11,26.556a1.165,1.165,0,0,0,1.06.679h.031a1.2,1.2,0,0,0,1.06-.731l3.221-7.774,8.052,2.413a1.181,1.181,0,0,0,1.41-1.631Z" transform="translate(22.83 40.766)" fill="#fff"/>
      <path id="Path_2777" data-name="Path 2777" d="M19.253,14.862l-3.936,8.294L12.7,16.848a1.178,1.178,0,0,0-1.086-.725,1.1,1.1,0,0,0-.34.046l-6.534,1.96,3.318-6.992c-.689-.406-1.348-.844-2-1.3L1.477,19.513a1.18,1.18,0,0,0,1.4,1.636l8.062-2.418,3.221,7.779a1.181,1.181,0,0,0,1.055.725h.031a1.172,1.172,0,0,0,1.065-.679l5.479-11.54c-.849-.015-1.7-.062-2.536-.154" transform="translate(5.648 40.766)" fill="#fff"/>
      <path id="Path_2778" data-name="Path 2778" d="M2.362,7.561A1.162,1.162,0,0,1,1.179,6.4V6.362a1.181,1.181,0,0,1,2.362,0,1.2,1.2,0,0,1-1.178,1.2" transform="translate(4.887 21.488)" fill="#fff"/>
      <path id="Path_2779" data-name="Path 2779" d="M2.434,19.843a.911.911,0,0,1-.211-.026,1.148,1.148,0,0,1-.947-1.343l.021-.1a1.177,1.177,0,1,1,2.3.478,1.211,1.211,0,0,1-1.168.988M3.6,16a1.356,1.356,0,0,1-.448-.087,1.185,1.185,0,0,1-.648-1.538l.021-.041a1.193,1.193,0,0,1,1.543-.659,1.155,1.155,0,0,1,.648,1.513l-.026.077A1.184,1.184,0,0,1,3.6,16m1.9-3.607a1.168,1.168,0,0,1-.978-1.79l.046-.077a1.179,1.179,0,1,1,1.955,1.317,1.232,1.232,0,0,1-1.024.551m2.567-3.1a1.2,1.2,0,0,1-.839-.34,1.183,1.183,0,0,1,0-1.667l.051-.051A1.177,1.177,0,0,1,8.963,8.879L8.9,8.951a1.193,1.193,0,0,1-.833.34M11.19,6.718a1.173,1.173,0,0,1-.659-2.151l.062-.046a1.179,1.179,0,1,1,1.312,1.96l-.062.041a1.181,1.181,0,0,1-.653.2M14.761,4.8A1.179,1.179,0,0,1,14.3,2.535l.015-.005a1.209,1.209,0,0,1,1.569.617,1.155,1.155,0,0,1-.6,1.528l-.077.036a1.137,1.137,0,0,1-.448.087m3.854-1.178a1.177,1.177,0,0,1-.237-2.331l.041-.01a1.194,1.194,0,0,1,1.4.921,1.147,1.147,0,0,1-.89,1.379l-.082.015a1.234,1.234,0,0,1-.237.026" transform="translate(5.201 5.209)" fill="#fff"/>
      <path id="Path_2780" data-name="Path 2780" d="M6.383,3.542A1.2,1.2,0,0,1,5.189,2.358,1.16,1.16,0,0,1,6.341,1.18h.041a1.181,1.181,0,0,1,0,2.362" transform="translate(21.508 4.892)" fill="#fff"/>
      <path id="Path_2781" data-name="Path 2781" d="M15.429,15.527a1.155,1.155,0,0,1-.777-.293L3.406,5.329A1.179,1.179,0,0,1,4.964,3.56l11.242,9.909a1.175,1.175,0,0,1,.113,1.662,1.2,1.2,0,0,1-.89.4" transform="translate(12.461 13.543)" fill="#fff"/>
      <path id="Path_2782" data-name="Path 2782" d="M9.3,14.126A4.821,4.821,0,1,1,14.126,9.3,4.824,4.824,0,0,1,9.3,14.126m0-7.285A2.464,2.464,0,1,0,11.769,9.3,2.468,2.468,0,0,0,9.3,6.84" transform="translate(18.586 18.587)" fill="#fff"/>
      <path id="Path_2783" data-name="Path 2783" d="M23,1.18a1.181,1.181,0,0,0-1.178,1.178V6.407a1.178,1.178,0,0,0,2.356,0V3.578A19.481,19.481,0,0,1,42.427,21.827H39.6a1.178,1.178,0,0,0,0,2.356h2.825A19.489,19.489,0,0,1,24.178,42.432V39.6a1.178,1.178,0,1,0-2.356,0v2.83A19.484,19.484,0,0,1,3.578,24.183H6.4a1.178,1.178,0,1,0,0-2.356H2.358A1.175,1.175,0,0,0,1.18,23,21.822,21.822,0,1,0,23,1.18" transform="translate(4.891 4.892)" fill="#fff"/>
    </g>
  </g>
</svg>
