<svg xmlns="http://www.w3.org/2000/svg" xmlns:xlink="http://www.w3.org/1999/xlink" width="70.684" height="64.698" viewBox="0 0 70.684 64.698">
  <defs>
    <clipPath id="clip-path">
      <rect id="Rectangle_893" data-name="Rectangle 893" width="70.684" height="64.698" fill="#fff"/>
    </clipPath>
  </defs>
  <g id="front1" transform="translate(0 0)">
    <g id="Group_11" data-name="Group 11" transform="translate(0 0)" clip-path="url(#clip-path)">
      <path id="Path_2750" data-name="Path 2750" d="M19.569,18.069c-1.657,0-16.238-.143-16.238-5.011S17.912,8.041,19.569,8.041s16.243.138,16.243,5.017-14.575,5.011-16.243,5.011M6.026,13.058c.854.917,5.745,2.385,13.543,2.385s12.7-1.468,13.549-2.385c-.849-.929-5.745-2.4-13.549-2.4S6.88,12.129,6.026,13.058m27.189.12h0Z" transform="translate(15.768 38.062)" fill="#fff"/>
      <path id="Path_2751" data-name="Path 2751" d="M33.192,11.9V17.39c-.619.912-5.567,2.477-13.623,2.477S6.565,18.3,5.957,17.39V11.9c-1.571-.717-2.626-1.68-2.626-2.987v8.56c0,4.874,14.581,5.023,16.238,5.023s16.243-.149,16.243-5.023V8.916c0,1.307-1.055,2.271-2.62,2.987" transform="translate(15.768 42.204)" fill="#fff"/>
      <path id="Path_2752" data-name="Path 2752" d="M11.663,17.1C9.181,17.1,5,16.746,5,14.452V8.547A1.318,1.318,0,0,1,6.314,7.228h10.7a1.314,1.314,0,0,1,1.313,1.319v5.906c0,2.293-4.174,2.643-6.668,2.643M7.627,13.948a12.8,12.8,0,0,0,4.036.516,12.761,12.761,0,0,0,4.042-.516V9.854H7.627Z" transform="translate(23.673 34.214)" fill="#fff"/>
      <path id="Path_2753" data-name="Path 2753" d="M42.161,5.424C41.668,1.152,30.1,0,23.195,0S4.709,1.152,4.239,5.43A34.514,34.514,0,0,0,2.565,16.157c0,14.976,9.26,27.166,20.63,27.166S43.83,31.134,43.83,16.157A34.69,34.69,0,0,0,42.161,5.424m-18.967-2.8c9.913,0,15.882,2.007,16.352,3.056-.522,1.1-6.479,3.079-16.352,3.079-9.839,0-15.779-1.972-16.329-3.027l-.017-.023c.527-1.1,6.485-3.085,16.347-3.085m0,38.071c-9.919,0-18-11.009-18-24.54a32.437,32.437,0,0,1,.917-7.723,2.736,2.736,0,0,0,.252.138c.115.069.229.132.344.195.132.069.281.138.424.206l.206.086a15.878,15.878,0,0,0,1.657.619l.052.017c4.105,1.273,9.982,1.7,14.151,1.7s10.057-.43,14.168-1.7l.034-.017a15.629,15.629,0,0,0,1.668-.619l.206-.086c.138-.069.287-.138.419-.206l.338-.189a2.746,2.746,0,0,0,.258-.143,32.145,32.145,0,0,1,.917,7.723c0,13.531-8.084,24.54-18.009,24.54" transform="translate(12.142 -0.001)" fill="#fff"/>
      <path id="Path_2754" data-name="Path 2754" d="M16.826,23.805c-1.084-.327-2.185-.573-3.268-.808-3.154-.682-5.883-1.261-7.494-3.75C3.891,15.91,3.031,12.12,3.76,9.1A6.064,6.064,0,0,1,6.552,5.1c1.72-.992,3.979-.9,6.376.258A13.169,13.169,0,0,1,15.083,6.7a31.912,31.912,0,0,1,.757-3.721,14.973,14.973,0,0,0-1.382-.768C10.984.526,7.561.481,4.792,2.069A9.631,9.631,0,0,0,.354,8.29C-.6,12.275.405,16.965,3.129,21.15c2.4,3.7,6.273,4.535,9.69,5.269,2.276.493,4.421.958,6.049,2.167a1.88,1.88,0,0,0,.367.195,28.969,28.969,0,0,1-2.408-4.977" transform="translate(0.002 4.312)" fill="#fff"/>
      <path id="Path_2755" data-name="Path 2755" d="M27.86,8.29a9.638,9.638,0,0,0-4.444-6.221C20.652.481,17.224.526,13.755,2.206c-.47.229-.929.487-1.388.768A33.143,33.143,0,0,1,13.124,6.7,13.415,13.415,0,0,1,15.28,5.354c2.4-1.158,4.661-1.244,6.382-.258A6.1,6.1,0,0,1,24.454,9.1c.722,3.016-.138,6.806-2.3,10.143C20.526,21.735,17.8,22.314,14.655,23c-1.089.235-2.2.482-3.274.808a28.552,28.552,0,0,1-2.408,4.977,1.88,1.88,0,0,0,.367-.195c1.628-1.21,3.778-1.674,6.049-2.167,3.417-.734,7.287-1.565,9.7-5.269C27.8,16.965,28.817,12.275,27.86,8.29" transform="translate(42.475 4.312)" fill="#fff"/>
      <path id="Path_2756" data-name="Path 2756" d="M20.22,22.31a1.3,1.3,0,0,1-.613-.155l-4.942-2.6-4.937,2.6a1.3,1.3,0,0,1-1.9-1.382l.946-5.5-4-3.893A1.314,1.314,0,0,1,5.5,9.134l5.521-.8,2.477-5.005a1.3,1.3,0,0,1,1.17-.734,1.319,1.319,0,0,1,1.181.734l2.471,5.005,5.521.8a1.314,1.314,0,0,1,.728,2.242l-4,3.893.946,5.5a1.313,1.313,0,0,1-1.3,1.537m-5.556-5.544a1.346,1.346,0,0,1,.613.149l3.2,1.68-.613-3.561a1.316,1.316,0,0,1,.378-1.164l2.586-2.517-3.572-.522a1.306,1.306,0,0,1-.992-.717l-1.6-3.24-1.588,3.24a1.325,1.325,0,0,1-.992.717l-3.578.522,2.586,2.517a1.332,1.332,0,0,1,.378,1.164l-.608,3.561,3.194-1.68a1.358,1.358,0,0,1,.608-.149" transform="translate(20.678 12.268)" fill="#fff"/>
    </g>
  </g>
</svg>
