<svg xmlns="http://www.w3.org/2000/svg" xmlns:xlink="http://www.w3.org/1999/xlink" width="28.185" height="29.028" viewBox="0 0 28.185 29.028">
  <defs>
    <clipPath id="clip-path">
      <rect id="Rectangle_890" data-name="Rectangle 890" width="28.185" height="29.028" fill="#fff"/>
    </clipPath>
  </defs>
  <g id="phone" clip-path="url(#clip-path)">
    <path id="Path_2748" data-name="Path 2748" d="M26.225,11.511a12.149,12.149,0,0,0-24.264,0A2.711,2.711,0,0,0,0,14.094v5.268a2.74,2.74,0,1,0,5.48,0V14.094A2.717,2.717,0,0,0,3.655,11.54a10.456,10.456,0,0,1,20.875,0,2.718,2.718,0,0,0-1.822,2.555v5.268a2.721,2.721,0,0,0,1.822,2.555,4.831,4.831,0,0,1-4.773,4.178h-.7a2.083,2.083,0,0,0-1.9-1.236H14.589a2.085,2.085,0,1,0,0,4.17h2.572a2.083,2.083,0,0,0,1.9-1.236h.7a6.523,6.523,0,0,0,6.467-5.848,2.71,2.71,0,0,0,1.963-2.583V14.094a2.71,2.71,0,0,0-1.963-2.583M3.785,19.362a1.044,1.044,0,1,1-2.088,0V14.094a1.044,1.044,0,1,1,2.088,0Zm13.376,7.969H14.589a.389.389,0,1,1,0-.778h2.572a.389.389,0,0,1,0,.778m9.33-7.969a1.044,1.044,0,1,1-2.088,0V14.094a1.044,1.044,0,1,1,2.088,0Z" transform="translate(0 0.001)" fill="#fff"/>
  </g>
</svg>
