<svg xmlns="http://www.w3.org/2000/svg" width="40" height="40" viewBox="0 0 40 40">
  <g id="to-top" transform="translate(-1850 -2875.001)">
    <rect id="Rectangle_43" data-name="Rectangle 43" width="40" height="40" rx="5" transform="translate(1850 2875.001)" fill="#3da2cf"/>
    <path id="Path_70" data-name="Path 70" d="M13.092,1.867a.711.711,0,0,1-.225.517l-8.84,8.84,8.84,8.84a.707.707,0,0,1,0,1.035l-1.125,1.125a.707.707,0,0,1-1.035,0L.225,11.742a.707.707,0,0,1,0-1.035L10.707.225a.707.707,0,0,1,1.035,0L12.867,1.35a.711.711,0,0,1,.225.517" transform="translate(1882.055 2887.813) rotate(90)" fill="#fff"/>
  </g>
</svg>
